<?xml version="1.0" encoding="UTF-8"?>
<svg width="640px" height="640px" viewBox="0 0 640 640" version="1.1" xmlns="http://www.w3.org/2000/svg" xmlns:xlink="http://www.w3.org/1999/xlink">
  <g stroke="none" stroke-width="1" fill="none" fill-rule="evenodd">
    <path d="M460.309943,359.7056 L180.538514,359.7056 C169.507657,359.7056 160.554971,368.6592 160.554971,379.689143 C160.554971,390.720914 169.507657,399.672686 180.538514,399.672686 L460.309943,399.672686 C471.3408,399.672686 480.293486,390.720914 480.293486,379.689143 C480.293486,368.6592 471.3408,359.7056 460.309943,359.7056 Z M460.309943,239.344457 L180.538514,239.344457 C169.507657,239.344457 160.554971,248.297143 160.554971,259.328 C160.554971,270.358857 169.507657,279.311543 180.538514,279.311543 L460.309943,279.311543 C471.3408,279.311543 480.293486,270.358857 480.293486,259.328 C480.293486,248.297143 471.3408,239.344457 460.309943,239.344457 Z M460.309943,119.902171 L180.538514,119.902171 C169.507657,119.902171 160.554971,128.854857 160.554971,139.885714 C160.554971,150.916571 169.507657,159.869257 180.538514,159.869257 L460.309943,159.869257 C471.3408,159.869257 480.293486,150.916571 480.293486,139.885714 C480.293486,128.854857 471.3408,119.902171 460.309943,119.902171 Z M520.260571,0 L120.587886,0 C76.4434286,0 40.6528,35.7906286 40.6528,79.9350857 L40.6528,639.477029 L77.9620571,639.477029 L160.554971,579.527314 L240.489143,639.477029 L320.424229,579.527314 L400.359314,639.477029 L480.2944,579.527314 L562.8864,639.477029 L600.196571,639.477029 L600.196571,79.9350857 C600.195657,35.7906286 564.404114,0 520.260571,0 Z M560.228571,600.050286 L480.293486,539.559314 L400.3584,603.268571 L320.423314,539.559314 L240.488229,603.268571 L160.554057,539.559314 L80.6189714,600.670171 L80.6189714,79.9350857 C80.6189714,57.8532571 98.5243429,39.968 120.586057,39.968 L520.259657,39.968 C542.341486,39.968 560.227657,57.8532571 560.227657,79.9350857 L560.227657,600.050286 L560.228571,600.050286 Z" fill="#35495d" fill-rule="nonzero"></path>
  </g>
</svg>
