<?xml version="1.0" encoding="UTF-8"?>
<svg width="64px" height="64px" viewBox="0 0 64 64" version="1.1" xmlns="http://www.w3.org/2000/svg" xmlns:xlink="http://www.w3.org/1999/xlink">
  <g stroke="none" stroke-width="1" fill="none" fill-rule="evenodd">
    <g fill="#000000" fill-rule="nonzero">
      <g transform="translate(4.000000, 4.000000)">
        <path d="M28,3.61290323 C41.3926935,3.61290323 52.3870968,14.4600806 52.3870968,28 C52.3870968,41.4683387 41.4795161,52.3870968 28,52.3870968 C14.5369677,52.3870968 3.61290323,41.4849355 3.61290323,28 C3.61290323,14.5415968 14.5195806,3.61290323 28,3.61290323 M28,0 C12.5371129,0 0,12.541629 0,28 C0,43.4674032 12.5371129,56 28,56 C43.4628871,56 56,43.4674032 56,28 C56,12.541629 43.4628871,0 28,0 Z M26.7027419,13.5483871 L29.2971452,13.5483871 C30.0674839,13.5483871 30.6829194,14.1899032 30.6508548,14.9596774 L29.8605323,33.9274194 C29.8302742,34.6531613 29.2332419,35.2258065 28.5068226,35.2258065 L27.4930645,35.2258065 C26.7667581,35.2258065 26.1696129,34.6530484 26.1393548,33.9274194 L25.3490323,14.9596774 C25.3170806,14.1899032 25.9324032,13.5483871 26.7027419,13.5483871 Z M28,37.483871 C26.2540645,37.483871 24.8387097,38.8992258 24.8387097,40.6451613 C24.8387097,42.3910968 26.2540645,43.8064516 28,43.8064516 C29.7459355,43.8064516 31.1612903,42.3910968 31.1612903,40.6451613 C31.1612903,38.8992258 29.7459355,37.483871 28,37.483871 Z"></path>
      </g>
    </g>
  </g>
</svg>
