<?xml version="1.0" encoding="UTF-8"?>
<svg width="48px" height="48px" viewBox="0 0 48 48" version="1.1" xmlns="http://www.w3.org/2000/svg" xmlns:xlink="http://www.w3.org/1999/xlink">
  <g stroke="none" stroke-width="1" fill="none" fill-rule="evenodd">
    <g transform="translate(9.000000, 9.000000)" fill="#ffffff" fill-rule="nonzero">
      <path d="M2.04794521,17.7054795 L0.52739726,16.1849315 C-0.116438356,15.5410959 -0.116438356,14.5 0.52739726,13.8630137 L13.8356164,0.547945205 C14.4794521,-0.095890411 15.5205479,-0.095890411 16.1575342,0.547945205 L29.4657534,13.8561644 C30.109589,14.5 30.109589,15.5410959 29.4657534,16.1780822 L27.9452055,17.6986301 C27.2945205,18.3493151 26.2328767,18.3356164 25.5958904,17.6712329 L17.739726,9.42465753 L17.739726,29.109589 C17.739726,30.0205479 17.0068493,30.7534247 16.0958904,30.7534247 L13.9041096,30.7534247 C12.9931507,30.7534247 12.260274,30.0205479 12.260274,29.109589 L12.260274,9.42465753 L4.39726027,17.6780822 C3.76027397,18.3493151 2.69863014,18.3630137 2.04794521,17.7054795 Z"></path>
    </g>
  </g>
</svg>
