<?xml version="1.0" encoding="UTF-8" standalone="no"?>
<svg width="139px" height="32px" viewBox="0 0 139 32" version="1.1" xmlns="http://www.w3.org/2000/svg" xmlns:xlink="http://www.w3.org/1999/xlink">
    <g stroke="none" stroke-width="1" fill="none" fill-rule="evenodd">
        <g>
            <rect fill="#7056BF" x="0" y="0" width="139" height="32" rx="4"></rect>
            <g transform="translate(10.000000, 8.000000)" fill="#FFFFFF">
                <path d="M14.819,3.216 L9.103,0.25 C8.464,-0.082 7.536,-0.081 6.898,0.25 L1.181,3.216 C0.496,3.571 0,4.365 0,5.102 L0,11.035 C0,11.774 0.497,12.566 1.181,12.921 L4.039,14.404 C4.529,14.656 5.134,14.467 5.388,13.978 C5.642,13.487 5.451,12.884 4.961,12.629 L2.106,11.148 C2.068,11.124 2.008,11.039 2,11.035 L1.996,5.143 C2.008,5.098 2.068,5.013 2.103,4.991 L7.816,2.026 C7.897,1.991 8.106,1.992 8.181,2.025 L13.894,4.989 C13.932,5.013 13.992,5.098 14,5.102 L14.003,10.995 C13.992,11.039 13.932,11.124 13.898,11.146 L11.039,12.629 C10.549,12.884 10.358,13.487 10.612,13.978 C10.79,14.32 11.14,14.517 11.501,14.517 C11.656,14.517 11.814,14.481 11.961,14.404 L14.818,12.921 C15.503,12.566 16,11.774 16,11.035 L16,5.102 C16,4.365 15.504,3.571 14.819,3.216"></path>
                <path d="M11.707,9.707 C12.098,9.316 12.098,8.684 11.707,8.293 L8.708,5.294 C8.616,5.201 8.505,5.128 8.382,5.077 C8.138,4.976 7.862,4.976 7.618,5.077 C7.495,5.128 7.385,5.201 7.292,5.294 L4.293,8.293 C3.902,8.684 3.902,9.316 4.293,9.707 C4.488,9.902 4.744,10 5,10 C5.256,10 5.512,9.902 5.707,9.707 L7,8.414 L7,15 C7,15.553 7.447,16 8,16 C8.553,16 9,15.553 9,15 L9,8.414 L10.293,9.707 C10.488,9.902 10.744,10 11,10 C11.256,10 11.512,9.902 11.707,9.707"></path>
            </g>
            <path d="M86.9400024,21 L88.0840024,21 L88.0840024,16.463 L93.0370024,16.463 L93.0370024,21 L94.1810024,21 L94.1810024,11.38 L93.0370024,11.38 L93.0370024,15.41 L88.0840024,15.41 L88.0840024,11.38 L86.9400024,11.38 L86.9400024,21 Z M99.0690024,21.143 C100.356002,21.143 101.227002,20.597 101.864002,19.687 L101.214002,19.115 C100.694002,19.83 100.135002,20.233 99.1470024,20.233 C98.0160024,20.233 97.1190024,19.401 97.0800024,17.854 L101.929002,17.854 L101.929002,17.62 C101.929002,15.137 100.694002,13.993 99.0690024,13.993 C97.6260024,13.993 95.9620024,15.072 95.9620024,17.568 C95.9620024,19.96 97.4440024,21.143 99.0690024,21.143 Z M97.1060024,16.983 C97.2620024,15.566 98.1330024,14.929 99.0560024,14.929 C100.187002,14.929 100.772002,15.761 100.863002,16.983 L97.1060024,16.983 Z M103.528002,21 L104.646002,21 L104.646002,16.567 C105.153002,15.592 105.972002,15.02 107.064002,15.02 C107.103002,15.02 107.350002,15.02 107.389002,15.033 L107.467002,13.993 L107.324002,13.993 C105.985002,13.993 105.179002,14.617 104.672002,15.41 L104.646002,15.41 L104.646002,14.136 L103.528002,14.136 L103.528002,21 Z M111.536002,21.143 C113.213002,21.143 114.721002,19.921 114.721002,17.568 C114.721002,15.202 113.213002,13.993 111.536002,13.993 C109.846002,13.993 108.338002,15.202 108.338002,17.568 C108.338002,19.921 109.859002,21.143 111.536002,21.143 Z M111.536002,20.194 C110.145002,20.194 109.469002,19.024 109.469002,17.568 C109.469002,16.021 110.223002,14.955 111.536002,14.955 C112.901002,14.955 113.590002,16.138 113.590002,17.568 C113.590002,19.141 112.836002,20.194 111.536002,20.194 Z M116.307002,21 L117.425002,21 L117.425002,18.894 L118.790002,17.425 L120.818002,21 L122.014002,21 L119.518002,16.593 L121.767002,14.136 L120.493002,14.136 L117.425002,17.568 L117.425002,11.38 L116.307002,11.38 L116.307002,21 Z M125.290002,21.13 C126.408002,21.13 127.266002,20.558 127.864002,19.973 L127.864002,21 L128.995002,21 L128.995002,14.136 L127.864002,14.136 L127.864002,19.089 C127.149002,19.765 126.473002,20.194 125.641002,20.194 C124.770002,20.194 124.380002,19.765 124.380002,18.855 L124.380002,14.136 L123.262002,14.136 L123.262002,19.089 C123.262002,20.389 123.977002,21.13 125.290002,21.13 Z" fill="#B7A7D5"></path>
            <path d="M36.432,11.024 C37.232,11.536 37.888,12.016 38.4,12.448 C39.312,11.84 40.032,11.168 40.544,10.432 L35.92,10.432 L35.92,9.664 L41.52,9.664 L41.52,10.304 C40.832,11.552 39.728,12.624 38.224,13.488 L40.896,13.488 L40.896,16.928 L37.328,16.928 L36.992,18.912 L40.992,18.912 C40.992,20.752 40.912,21.952 40.768,22.512 C40.576,23.136 39.872,23.472 38.64,23.504 C38.048,23.504 37.44,23.472 36.832,23.44 L36.624,22.656 C37.232,22.688 37.856,22.72 38.464,22.72 C39.328,22.72 39.84,22.528 40,22.16 C40.128,21.744 40.192,20.912 40.192,19.664 L36.112,19.664 L36.64,16.176 L40.112,16.176 L40.112,14.272 L36.608,14.272 C36.16,14.448 35.728,14.608 35.28,14.768 L34.752,14.08 C35.888,13.728 36.88,13.312 37.712,12.864 C37.184,12.4 36.544,11.92 35.776,11.424 L36.432,11.024 Z M46.176,8.992 L46.816,9.376 C46.432,9.808 46.064,10.16 45.68,10.432 C45.36,10.656 44.976,10.88 44.544,11.104 C44.896,11.408 45.264,11.696 45.68,11.968 C46.16,11.76 46.576,11.52 46.96,11.232 C47.376,10.912 47.744,10.528 48.08,10.096 L48.72,10.496 C48.32,10.992 47.92,11.408 47.504,11.728 C47.184,11.968 46.816,12.208 46.4,12.432 C47.264,12.928 48.224,13.376 49.312,13.76 L48.736,14.432 C48.016,14.144 47.36,13.856 46.784,13.552 L46.784,15.392 C46.784,15.744 46.992,15.936 47.408,15.936 L48.336,15.936 L48.336,16.672 L47.168,16.672 C46.4,16.672 46.032,16.304 46.032,15.568 L46.032,14.224 L43.424,14.224 C43.424,14.848 43.328,15.36 43.152,15.744 C42.912,16.176 42.528,16.576 42,16.944 L41.392,16.4 C41.904,16.016 42.24,15.632 42.432,15.232 C42.592,14.864 42.672,14.288 42.672,13.488 L46.672,13.488 C44.656,12.4 43.184,11.12 42.256,9.648 L42.944,9.248 C43.232,9.728 43.584,10.16 43.984,10.576 C44.416,10.384 44.8,10.176 45.136,9.952 C45.52,9.664 45.872,9.344 46.176,8.992 Z M42.08,17.664 L47.6,17.664 L47.6,18.416 C47.2,19.456 46.64,20.352 45.904,21.12 C46.944,21.76 47.888,22.384 48.72,23.008 L48.112,23.6 C47.328,22.96 46.4,22.32 45.328,21.664 C44.4,22.432 43.296,23.056 42,23.536 L41.68,22.768 C42.832,22.368 43.808,21.856 44.592,21.216 C43.824,20.768 42.992,20.304 42.112,19.84 L42.656,19.328 C43.552,19.776 44.384,20.24 45.184,20.688 C45.84,20.016 46.352,19.28 46.72,18.464 L42.08,18.464 L42.08,17.664 Z M54.144,8.96 L54.928,9.312 C54.592,10.384 54.192,11.392 53.728,12.336 L53.728,23.504 L52.896,23.504 L52.896,13.888 C52.32,14.848 51.664,15.744 50.944,16.576 L50.672,15.68 C52.272,13.696 53.44,11.456 54.144,8.96 Z M55.184,11.248 L58.544,11.248 C58.8,10.512 59.008,9.744 59.2,8.976 L60,9.136 C59.808,9.872 59.6,10.576 59.376,11.248 L65.088,11.248 L65.088,12.064 L59.088,12.064 C58.64,13.184 58.128,14.224 57.52,15.168 L60.272,15.168 L60.272,13.104 L61.088,13.104 L61.088,15.168 L64.464,15.168 L64.464,20.96 C64.464,21.696 64.064,22.064 63.296,22.064 L62.176,22.064 L61.968,21.296 L63.056,21.328 C63.44,21.328 63.648,21.136 63.648,20.784 L63.648,15.952 L61.088,15.952 L61.088,23.536 L60.272,23.536 L60.272,15.952 L57.76,15.952 L57.76,22.192 L56.944,22.192 L56.944,16.016 C56.288,16.912 55.552,17.696 54.752,18.4 L54.256,17.792 C55.984,16.256 57.296,14.336 58.224,12.064 L55.184,12.064 L55.184,11.248 Z M75.008,21.168 L75.008,22.032 C72.56,22.544 69.92,22.976 67.072,23.312 L66.864,22.48 C68.16,22.352 69.424,22.176 70.672,21.984 L70.672,18.64 L67.44,18.64 L67.44,17.808 L70.672,17.808 L70.672,15.808 L71.536,15.808 L71.536,17.808 L74.576,17.808 L74.576,18.64 L71.536,18.64 L71.536,21.84 C72.72,21.648 73.888,21.424 75.008,21.168 Z M67.056,9.76 L74.944,9.76 L74.944,10.592 L70.752,10.592 C69.92,12.368 69.12,13.68 68.352,14.528 C70.176,14.352 71.888,14.128 73.456,13.856 C73.056,13.232 72.608,12.576 72.128,11.888 L72.8,11.472 C73.888,12.944 74.704,14.24 75.28,15.328 L74.576,15.824 C74.352,15.408 74.128,14.976 73.872,14.528 C71.824,14.88 69.568,15.168 67.12,15.392 L66.928,14.608 C67.072,14.576 67.184,14.56 67.264,14.528 C68.048,13.84 68.912,12.528 69.856,10.592 L67.056,10.592 L67.056,9.76 Z M79.216,23.408 L76.88,23.408 L76.688,22.576 C77.456,22.608 78.208,22.64 78.912,22.64 C79.424,22.64 79.68,22.368 79.68,21.856 L79.68,9.024 L80.56,9.024 L80.56,22.08 C80.56,22.96 80.112,23.408 79.216,23.408 Z M76.384,10.464 L77.232,10.464 L77.232,20.416 L76.384,20.416 L76.384,10.464 Z" fill="#FFFFFF"></path>
        </g>
    </g>
</svg>
